<?xml version="1.0" encoding="UTF-8" standalone="no"?>
<!-- Created with Inkscape (http://www.inkscape.org/) -->

<svg
   width="63.483452mm"
   height="59.910717mm"
   viewBox="0 0 63.483452 59.910717"
   version="1.1"
   id="svg5"
   inkscape:version="1.1 (c4e8f9ed74, 2021-05-24)"
   sodipodi:docname="drawing.svg"
   xmlns:inkscape="http://www.inkscape.org/namespaces/inkscape"
   xmlns:sodipodi="http://sodipodi.sourceforge.net/DTD/sodipodi-0.dtd"
   xmlns="http://www.w3.org/2000/svg"
   xmlns:svg="http://www.w3.org/2000/svg">
  <sodipodi:namedview
     id="namedview7"
     pagecolor="#505050"
     bordercolor="#eeeeee"
     borderopacity="1"
     inkscape:pageshadow="0"
     inkscape:pageopacity="0"
     inkscape:pagecheckerboard="0"
     inkscape:document-units="mm"
     showgrid="false"
     inkscape:zoom="1"
     inkscape:cx="-41"
     inkscape:cy="52"
     inkscape:window-width="1344"
     inkscape:window-height="711"
     inkscape:window-x="8"
     inkscape:window-y="43"
     inkscape:window-maximized="1"
     inkscape:current-layer="layer1"
     fit-margin-top="10"
     fit-margin-left="10"
     fit-margin-right="10"
     fit-margin-bottom="10" />
  <defs
     id="defs2" />
  <g
     inkscape:label="Layer 1"
     inkscape:groupmode="layer"
     id="layer1"
     transform="translate(-39.819236,-75.619089)">
    <path
       id="path710"
       style="fill:none;stroke:#00ff00;stroke-width:0.165;stroke-miterlimit:4;stroke-dasharray:none"
       d="m 50.366113,111.7179 c -0.288154,-1.40818 -0.439479,-2.86619 -0.439479,-4.35955"
       sodipodi:nodetypes="cc" />
    <path
       id="path5483"
       style="fill:none;stroke:#00ff00;stroke-width:0.665;stroke-miterlimit:4;stroke-dasharray:none"
       d="m 51.62656,115.7784 c -0.547312,-1.294 -0.972294,-2.65233 -1.260447,-4.0605"
       sodipodi:nodetypes="cc" />
    <path
       id="path6025"
       style="fill:none;stroke:#ff0000;stroke-width:2.865;stroke-miterlimit:4;stroke-dasharray:none"
       d="m 53.62099,119.45286 c -0.777475,-1.15082 -1.447118,-2.38047 -1.99443,-3.67446"
       sodipodi:nodetypes="cc" />
    <path
       id="path6411"
       style="fill:none;stroke:#ff6600;stroke-width:1.265;stroke-miterlimit:4;stroke-dasharray:none"
       d="m 56.262417,122.65429 c -0.978644,-0.97864 -1.863952,-2.05062 -2.641427,-3.20143"
       sodipodi:nodetypes="cc" />
    <path
       id="path100"
       style="fill:none;stroke:#808000;stroke-width:0.565;stroke-miterlimit:4;stroke-dasharray:none"
       d="m 59.463853,125.29572 c -1.150815,-0.77748 -2.222793,-1.66278 -3.201436,-2.64143"
       sodipodi:nodetypes="cc" />
    <path
       id="path710-3"
       style="fill:none;stroke:#00ff00;stroke-width:0.165;stroke-miterlimit:4;stroke-dasharray:none"
       d="m 67.223707,86.165966 c 1.40818,-0.288154 2.86619,-0.439479 4.35955,-0.439479"
       sodipodi:nodetypes="cc" />
    <path
       id="path4352-6"
       style="fill:none;stroke:#00ff00;stroke-width:0.264583"
       d="m 49.951527,107.35821 c 0,-1.49336 0.15133,-2.95137 0.43948,-4.35955"
       sodipodi:nodetypes="cc" />
    <path
       id="path5483-1"
       style="fill:none;stroke:#00ff00;stroke-width:0.665;stroke-miterlimit:4;stroke-dasharray:none"
       d="m 63.163207,87.426413 c 1.294,-0.547312 2.65233,-0.972294 4.0605,-1.260447"
       sodipodi:nodetypes="cc" />
    <path
       id="path6025-2"
       style="fill:none;stroke:#00ff00;stroke-width:1.665;stroke-miterlimit:4;stroke-dasharray:none"
       d="m 59.488747,89.420843 c 1.15082,-0.777475 2.38047,-1.447118 3.67446,-1.99443"
       sodipodi:nodetypes="cc" />
    <path
       id="path6411-9"
       style="fill:none;stroke:#ff6600;stroke-width:1.265;stroke-miterlimit:4;stroke-dasharray:none"
       d="m 56.287317,92.06227 c 0.97864,-0.978644 2.05062,-1.863952 3.20143,-2.641427"
       sodipodi:nodetypes="cc" />
    <path
       id="path100-3"
       style="fill:none;stroke:#808000;stroke-width:0.565;stroke-miterlimit:4;stroke-dasharray:none"
       d="m 53.645887,95.263706 c 0.77748,-1.150815 1.66278,-2.222793 2.64143,-3.201436"
       sodipodi:nodetypes="cc" />
    <path
       id="path368-1"
       style="fill:none;stroke:#008000;stroke-width:0.264583"
       d="m 51.651457,98.938165 c 0.54731,-1.293992 1.21695,-2.523644 1.99443,-3.674459"
       sodipodi:nodetypes="cc" />
    <path
       id="path522-9"
       style="fill:none;stroke:#00ff00;stroke-width:0.264583"
       d="m 50.391007,102.99866 c 0.28815,-1.40817 0.71314,-2.7665 1.26045,-4.060495"
       sodipodi:nodetypes="cc" />
    <path
       id="path710-3-7"
       style="fill:none;stroke:#00ff00;stroke-width:0.165;stroke-miterlimit:4;stroke-dasharray:none"
       d="m 92.780709,103.02356 c 0.288154,1.40818 0.439479,2.86619 0.439479,4.35955"
       sodipodi:nodetypes="cc" />
    <path
       id="path4352-6-8"
       style="fill:none;stroke:#00ff00;stroke-width:0.264583"
       d="m 71.588465,85.75138 c 1.493359,0 2.951374,0.15133 4.359548,0.43948"
       sodipodi:nodetypes="cc" />
    <path
       id="path5483-1-4"
       style="fill:none;stroke:#00ff00;stroke-width:0.665;stroke-miterlimit:4;stroke-dasharray:none"
       d="m 91.520262,98.96306 c 0.547312,1.294 0.972294,2.65233 1.260447,4.0605"
       sodipodi:nodetypes="cc" />
    <path
       id="path6025-2-5"
       style="fill:none;stroke:#ff0000;stroke-width:2.865;stroke-miterlimit:4;stroke-dasharray:none"
       d="m 89.525832,95.2886 c 0.777475,1.15082 1.447118,2.38047 1.99443,3.67446"
       sodipodi:nodetypes="cc" />
    <path
       id="path6411-9-0"
       style="fill:none;stroke:#ff6600;stroke-width:1.265;stroke-miterlimit:4;stroke-dasharray:none"
       d="m 86.884405,92.08717 c 0.978644,0.97864 1.863952,2.05062 2.641427,3.20143"
       sodipodi:nodetypes="cc" />
    <path
       id="path100-3-3"
       style="fill:none;stroke:#808000;stroke-width:0.565;stroke-miterlimit:4;stroke-dasharray:none"
       d="m 83.682969,89.44574 c 1.150815,0.77748 2.222793,1.66278 3.201436,2.64143"
       sodipodi:nodetypes="cc" />
    <path
       id="path368-1-6"
       style="fill:none;stroke:#008000;stroke-width:0.264583"
       d="m 80.00851,87.45131 c 1.293992,0.54731 2.523644,1.21695 3.674459,1.99443"
       sodipodi:nodetypes="cc" />
    <path
       id="path522-9-1"
       style="fill:none;stroke:#00ff00;stroke-width:0.264583"
       d="m 75.948013,86.19086 c 1.408173,0.28815 2.766504,0.71314 4.060497,1.26045"
       sodipodi:nodetypes="cc" />
  </g>
</svg>
